<?xml version="1.0" encoding="utf-8"?>
<!-- Uploaded to: SVG Repo, www.svgrepo.com, Generator: SVG Repo Mixer Tools -->
<svg fill="#000000" width="800px" height="800px" viewBox="-9.5 0 32 32" version="1.1" xmlns="http://www.w3.org/2000/svg">
<title>drop</title>
<path d="M6.72 24.68c-3.68 0-6.68-3-6.68-6.68 0-3.44 5.4-9.68 6.040-10.4 0.32-0.36 0.96-0.36 1.28 0 0.6 0.72 6.040 6.96 6.040 10.4-0.040 3.68-3.040 6.68-6.68 6.68zM6.72 9.44c-1.84 2.2-5.040 6.48-5.040 8.56 0 2.76 2.24 5 5 5s5-2.24 5-5c0-2.080-3.16-6.36-4.96-8.56zM5.48 21.16c-0.12 0-0.28-0.040-0.4-0.12-0.84-0.48-1.52-1.24-1.84-2.16-0.16-0.44 0.080-0.92 0.52-1.080s0.92 0.080 1.080 0.52c0.2 0.52 0.56 1 1.080 1.28 0.4 0.24 0.56 0.72 0.32 1.16-0.16 0.24-0.44 0.4-0.76 0.4z"></path>
</svg>