<?xml version="1.0" encoding="utf-8"?>
<!-- Uploaded to: SVG Repo, www.svgrepo.com, Generator: SVG Repo Mixer Tools -->
<svg fill="#000000" width="800px" height="800px" viewBox="-6.5 0 32 32" version="1.1" xmlns="http://www.w3.org/2000/svg">
<title>umbrella</title>
<path d="M9.48 5.72c-5.24 0-9.48 4.28-9.48 9.52 0 0.48 0.36 0.84 0.84 0.84h7.8v7.24c0 0.72-0.6 1.32-1.32 1.32s-1.32-0.6-1.32-1.32c0-0.48-0.36-0.84-0.84-0.84s-0.84 0.36-0.84 0.84c0 1.64 1.32 3 3 3s3-1.32 3-3v-7.28h7.8c0.48 0 0.84-0.36 0.84-0.84 0-5.2-4.24-9.48-9.48-9.48zM1.72 14.4c0.4-3.92 3.76-6.96 7.76-6.96s7.36 3.040 7.76 6.96h-15.52z"></path>
</svg>